<svg width="803" height="287" viewBox="0 0 803 287" fill="none" xmlns="http://www.w3.org/2000/svg"><path d="M82.7634 246H153.428C201.602 246 251.579 182.142 192.12 125.709C203.845 116.153 209.673 100.461 209.673 82.7222C209.673 53.6045 184.968 34 153.258 34H91.5964C43.0149 34 -15.6652 94.8889 60.984 151.667C44.8788 161.005 25.3489 177.494 25.3489 196.278C25.3489 225.395 51.0542 246 82.7634 246Z" fill="url(#paint0_linear_1_12)"/><path d="M32 101.155C32 114.528 39.3068 126.727 49.6779 135.962C100.389 191.642 191.372 187.294 192.025 231.52C192.027 231.696 192.243 231.795 192.37 231.673C212.539 212.323 216 196.558 216 180.446C216 167.073 205.323 147.737 194.952 138.501C143.63 96.1077 63.6215 93.7495 63.2165 49.3391C63.2151 49.1888 63.0511 49.086 62.9182 49.1563C36.4666 63.163 32 85.0123 32 101.155Z" fill="#FAFAF8"/><path d="M340.752 190.536C333.413 190.536 326.331 189.683 319.504 187.976C312.763 186.269 307.173 183.965 302.736 181.064L310.288 159.816C313.019 161.437 316.091 162.888 319.504 164.168C322.917 165.363 326.459 166.344 330.128 167.112C333.797 167.795 337.424 168.136 341.008 168.136C346.043 168.136 349.413 167.624 351.12 166.6C352.827 165.491 353.68 164.168 353.68 162.632C353.68 161.181 353.125 160.029 352.016 159.176C350.992 158.323 348.816 157.555 345.488 156.872L329.232 153.544C320.955 151.837 314.725 148.808 310.544 144.456C306.448 140.104 304.4 134.472 304.4 127.56C304.4 121.416 306.064 116.083 309.392 111.56C312.72 107.037 317.413 103.539 323.472 101.064C329.531 98.504 336.613 97.224 344.72 97.224C351.12 97.224 357.179 98.0773 362.896 99.784C368.613 101.491 373.264 103.795 376.848 106.696L369.296 126.664C366.053 124.445 362.299 122.739 358.032 121.544C353.851 120.264 349.2 119.624 344.08 119.624C339.813 119.624 336.613 120.136 334.48 121.16C332.432 122.184 331.408 123.677 331.408 125.64C331.408 126.835 332.005 127.944 333.2 128.968C334.395 129.992 336.699 130.845 340.112 131.528L356.112 134.728C364.219 136.349 370.32 139.336 374.416 143.688C378.597 148.04 380.688 153.629 380.688 160.456C380.688 166.515 379.024 171.805 375.696 176.328C372.368 180.851 367.717 184.349 361.744 186.824C355.771 189.299 348.773 190.536 340.752 190.536ZM393.049 189V98.76H420.697V132.04H451.545V98.76H479.193V189H451.545V154.568H420.697V189H393.049ZM482.273 189L525.153 98.76H547.553L590.689 189H563.041L552.289 164.552L562.657 172.232H510.305L520.545 164.552L509.793 189H482.273ZM536.289 126.92L523.105 158.536L519.265 151.368H553.697L550.241 158.536L536.929 126.92H536.289ZM593.799 189V98.76H638.215C648.882 98.76 657.116 101.32 662.919 106.44C668.722 111.56 671.623 118.643 671.623 127.688C671.623 133.661 670.3 138.824 667.655 143.176C665.095 147.443 661.298 150.771 656.263 153.16C651.228 155.464 645.127 156.616 637.959 156.616L638.855 152.904H646.407C650.162 152.904 653.532 154.013 656.519 156.232C659.506 158.365 661.98 161.181 663.943 164.68L677.895 189H647.559L632.071 160.584C631.388 159.304 630.279 158.408 628.743 157.896C627.207 157.299 625.628 157 624.007 157H621.447V189H593.799ZM621.447 137.672H633.223C637.148 137.672 640.135 136.947 642.183 135.496C644.231 133.96 645.255 131.656 645.255 128.584C645.255 125.597 644.231 123.379 642.183 121.928C640.135 120.477 637.148 119.752 633.223 119.752H621.447V137.672ZM753.779 213.704C750.622 212.253 747.507 210.291 744.435 207.816C741.448 205.427 738.675 202.653 736.115 199.496C733.64 196.424 731.55 193.181 729.843 189.768L750.451 180.04C752.414 184.307 755.4 188.232 759.411 191.816C763.422 195.485 767.646 198.387 772.083 200.52L753.779 213.704ZM683.123 143.816C683.123 134.515 685 126.365 688.755 119.368C692.595 112.371 698.014 106.952 705.011 103.112C712.008 99.1867 720.286 97.224 729.843 97.224C739.486 97.224 747.806 99.1867 754.803 103.112C761.8 106.952 767.219 112.371 771.059 119.368C774.899 126.365 776.819 134.515 776.819 143.816C776.819 153.117 774.899 161.267 771.059 168.264C767.219 175.261 761.8 180.723 754.803 184.648C747.806 188.573 739.486 190.536 729.843 190.536C720.286 190.536 712.008 188.573 705.011 184.648C698.014 180.723 692.595 175.261 688.755 168.264C685 161.181 683.123 153.032 683.123 143.816ZM712.051 143.816C712.051 151.325 713.459 157.171 716.275 161.352C719.176 165.533 723.699 167.624 729.843 167.624C735.987 167.624 740.51 165.533 743.411 161.352C746.398 157.085 747.891 151.24 747.891 143.816C747.891 136.392 746.398 130.589 743.411 126.408C740.51 122.227 735.987 120.136 729.843 120.136C723.699 120.136 719.176 122.227 716.275 126.408C713.459 130.504 712.051 136.307 712.051 143.816Z" fill="white"/><defs><linearGradient id="paint0_linear_1_12" x1="194.017" y1="86.7778" x2="-51.6796" y2="160.913" gradientUnits="userSpaceOnUse"><stop stop-color="#F1D327"/><stop offset="1" stop-color="#FF0000"/></linearGradient></defs></svg>