<svg version="1.1" id="Layer_1" xmlns="http://www.w3.org/2000/svg" xmlns:xlink="http://www.w3.org/1999/xlink" x="0px" y="0px"
	 width="100%" viewBox="0 0 238 287" enable-background="new 0 0 238 287" xml:space="preserve">
<path fill="#000000" opacity="1.000000" stroke="none" 
	d="
M1.000000,109.000000 
	C1.000000,72.666672 1.000000,36.833351 1.000000,1.000019 
	C80.333305,1.000013 159.666611,1.000013 238.999939,1.000006 
	C238.999969,96.666618 238.999969,192.333237 238.999985,287.999878 
	C159.666733,287.999939 80.333473,287.999939 1.000104,287.999969 
	C1.000000,228.500000 1.000000,169.000000 1.000000,109.000000 
M46.271652,52.221157 
	C43.048252,55.519707 39.824848,58.818256 36.221210,62.355053 
	C36.221210,62.355053 36.389091,62.771175 35.716431,62.928932 
	C35.440189,63.268120 35.163944,63.607307 34.274200,64.277000 
	C32.237869,68.517746 30.201538,72.758499 27.812838,77.692421 
	C23.834040,86.596672 23.967487,96.017342 25.775990,105.151337 
	C28.763348,120.239227 37.393978,132.185745 49.220394,142.717270 
	C52.943542,146.043045 56.666695,149.368820 60.327057,152.638519 
	C57.996941,154.299591 55.434383,156.126373 52.258595,158.238876 
	C49.133171,160.812164 46.007744,163.385468 42.286381,166.225769 
	C40.481236,168.132721 38.676090,170.039673 36.248180,172.235443 
	C34.125412,175.810715 32.002647,179.385971 29.249298,183.325470 
	C28.166445,187.356766 26.349451,191.348495 26.129553,195.426315 
	C25.241922,211.886581 31.742575,225.089981 45.060402,235.541153 
	C45.370872,235.643478 45.681347,235.745789 46.470596,235.995651 
	C46.632717,236.035721 46.794834,236.075790 47.247734,236.741852 
	C51.165630,238.772598 55.083523,240.803360 59.675949,243.172241 
	C62.453236,244.059326 65.230522,244.946396 68.859795,245.971298 
	C73.239754,246.258652 77.619720,246.546021 82.891380,246.971909 
	C85.594643,246.925797 88.297905,246.879684 91.900871,246.971573 
	C94.934196,246.925278 97.967529,246.878983 101.892380,246.971466 
	C104.595383,246.925400 107.298386,246.879349 110.881401,246.972153 
	C113.255051,246.925751 115.628708,246.879333 118.901718,246.972260 
	C121.935745,246.925842 124.969772,246.879425 128.918823,246.972122 
	C132.946823,246.925507 136.974808,246.878891 141.922882,246.971329 
	C146.283066,246.925644 150.643250,246.879944 155.891296,246.973145 
	C159.595306,246.593246 163.299332,246.213364 167.783264,245.972061 
	C171.203827,244.684402 174.624374,243.396729 178.797806,242.010330 
	C181.533859,240.617401 184.269928,239.224472 187.695999,237.770584 
	C190.153961,235.878540 192.611938,233.986481 195.544373,231.910370 
	C195.717850,231.629135 195.891312,231.347900 196.759460,230.975677 
	C199.930557,227.719467 203.264023,224.604538 206.242935,221.181091 
	C216.017975,209.947342 220.757843,196.523651 220.824081,181.915512 
	C220.890762,167.210281 215.916718,153.746262 206.771973,141.246536 
	C202.629425,136.274734 198.486893,131.302933 194.842422,126.928902 
	C196.307709,124.900940 197.677063,123.005737 199.685318,120.825790 
	C204.975601,114.463280 207.901779,107.079117 209.555176,99.023865 
	C212.078735,86.729156 212.207672,74.584122 206.525665,63.155258 
	C199.774506,49.575897 188.250458,41.554920 173.173828,37.015213 
	C168.784973,36.399654 164.396103,35.784096 159.140808,35.019318 
	C157.094406,35.068321 155.048004,35.117325 152.103180,35.019173 
	C149.069717,35.068027 146.036240,35.116882 142.091248,35.018677 
	C138.395584,35.067848 134.699921,35.117020 130.097519,35.019203 
	C126.731987,35.067711 123.366463,35.116215 119.081528,35.018402 
	C114.721924,35.067245 110.362328,35.116093 105.103783,35.019909 
	C102.069229,35.068489 99.034683,35.117073 95.088432,35.021866 
	C91.393219,35.069511 87.698013,35.117157 83.208664,35.018284 
	C79.788742,35.968849 76.368828,36.919415 72.175697,37.980141 
	C68.453384,39.375950 64.731079,40.771759 60.318619,42.230610 
	C55.844868,45.470154 51.371117,48.709698 46.271652,52.221157 
z"/>
<path fill="#F1D227" opacity="1.000000" stroke="none" 
	d="
M173.993851,37.155186 
	C188.250458,41.554920 199.774506,49.575897 206.525665,63.155258 
	C212.207672,74.584122 212.078735,86.729156 209.555176,99.023865 
	C207.901779,107.079117 204.975601,114.463280 199.211456,120.621658 
	C193.833954,103.990723 188.917816,87.567635 184.031006,71.135818 
	C180.664261,59.815193 177.338135,48.482491 173.993851,37.155186 
z"/>
<path fill="#F2CB26" opacity="1.000000" stroke="none" 
	d="
M173.583832,37.085197 
	C177.338135,48.482491 180.664261,59.815193 184.031006,71.135818 
	C188.917816,87.567635 193.833954,103.990723 198.891998,120.764038 
	C197.677063,123.005737 196.307709,124.900940 194.842422,126.928902 
	C198.486893,131.302933 202.629425,136.274734 206.905670,141.969055 
	C207.240829,146.364517 207.442322,150.037476 207.394104,153.457184 
	C202.109268,144.463303 194.519714,138.197052 186.989716,131.840057 
	C187.084106,128.985855 187.382095,126.281479 186.673431,123.873329 
	C182.032837,108.103676 177.144623,92.407104 172.396423,76.668823 
	C168.226578,62.847496 164.133972,49.002869 160.007248,35.168537 
	C164.396103,35.784096 168.784973,36.399654 173.583832,37.085197 
z"/>
<path fill="#FA510F" opacity="1.000000" stroke="none" 
	d="
M42.882324,165.958771 
	C46.007744,163.385468 49.133171,160.812164 52.921814,158.179092 
	C54.701462,159.843094 56.289272,161.423553 56.863541,163.312195 
	C65.321449,191.128494 73.644562,218.985809 81.999680,246.833374 
	C77.619720,246.546021 73.239754,246.258652 68.430824,245.495087 
	C67.887680,243.866608 67.957718,242.659302 67.632233,241.570190 
	C60.510509,217.739807 53.380535,193.911636 46.106621,170.127548 
	C45.626060,168.556229 43.984085,167.340103 42.882324,165.958771 
z"/>
<path fill="#F59D1E" opacity="1.000000" stroke="none" 
	d="
M106.002724,35.164940 
	C110.362328,35.116093 114.721924,35.067245 119.618713,35.457920 
	C125.144432,52.564095 130.198196,69.211639 135.091339,85.906250 
	C137.228897,93.199219 139.037704,100.588547 140.631378,107.914703 
	C134.385056,105.327843 128.503143,102.760391 122.881180,99.931198 
	C123.014969,97.754875 123.232674,95.739685 122.706726,93.942085 
	C119.353302,82.480476 115.717484,71.100929 112.413094,59.625702 
	C110.081360,51.528248 108.126076,43.322399 106.002724,35.164940 
z"/>
<path fill="#F95810" opacity="1.000000" stroke="none" 
	d="
M82.445526,246.902649 
	C73.644562,218.985809 65.321449,191.128494 56.863541,163.312195 
	C56.289272,161.423553 54.701462,159.843094 53.228432,158.036224 
	C55.434383,156.126373 57.996941,154.299591 60.327057,152.638519 
	C56.666695,149.368820 52.943542,146.043045 49.240971,142.054260 
	C49.533386,139.858765 49.805225,138.326279 50.387707,136.932510 
	C55.429531,141.555115 60.160717,146.039017 64.597176,150.752884 
	C64.329033,152.542328 64.004318,154.206940 64.434814,155.645569 
	C71.047211,177.742676 77.839417,199.786194 84.403664,221.897430 
	C86.849548,230.136230 88.816055,238.517365 91.001167,246.833588 
	C88.297905,246.879684 85.594643,246.925797 82.445526,246.902649 
z"/>
<path fill="#F3B221" opacity="1.000000" stroke="none" 
	d="
M131.004257,35.166187 
	C134.699921,35.117020 138.395584,35.067848 142.547668,35.495476 
	C143.217758,37.442490 143.248672,38.967781 143.672638,40.374607 
	C149.373154,59.289715 155.205902,78.165298 160.832199,97.102280 
	C163.093719,104.714104 164.932022,112.451668 166.605835,120.069199 
	C161.809555,117.751358 157.370392,115.496307 152.944946,112.808716 
	C152.521805,109.761551 152.341721,107.071709 151.601822,104.545860 
	C148.981598,95.601013 146.096161,86.734116 143.447968,77.797165 
	C139.242249,63.603970 135.146515,49.378185 131.004257,35.166187 
z"/>
<path fill="#F3BA23" opacity="1.000000" stroke="none" 
	d="
M166.962952,120.131996 
	C164.932022,112.451668 163.093719,104.714104 160.832199,97.102280 
	C155.205902,78.165298 149.373154,59.289715 143.672638,40.374607 
	C143.248672,38.967781 143.217758,37.442490 143.003448,35.569000 
	C146.036240,35.116882 149.069717,35.068027 152.553375,35.495995 
	C153.269989,37.604240 153.356628,39.289848 153.829605,40.859020 
	C161.654816,66.820824 169.574112,92.754433 177.316025,118.740913 
	C178.034424,121.152290 177.695862,123.878563 177.507416,126.334152 
	C173.765503,124.183792 170.364227,122.157890 166.962952,120.131996 
z"/>
<path fill="#F95F12" opacity="1.000000" stroke="none" 
	d="
M91.451019,246.902588 
	C88.816055,238.517365 86.849548,230.136230 84.403664,221.897430 
	C77.839417,199.786194 71.047211,177.742676 64.434814,155.645569 
	C64.004318,154.206940 64.329033,152.542328 64.876381,150.899734 
	C68.984955,153.491959 72.519592,156.167267 76.042542,159.276398 
	C76.210831,161.520203 76.107948,163.414169 76.616295,165.126678 
	C80.164917,177.081329 83.893494,188.982483 87.461288,200.931564 
	C92.025185,216.216782 96.492134,231.530975 101.000854,246.832672 
	C97.967529,246.878983 94.934196,246.925278 91.451019,246.902588 
z"/>
<path fill="#F77E18" opacity="1.000000" stroke="none" 
	d="
M141.002808,246.832275 
	C136.974808,246.878891 132.946823,246.925507 128.459137,246.499451 
	C125.516510,237.066132 123.099739,228.086533 120.535561,219.149216 
	C116.407745,204.761902 112.182640,190.402527 108.362946,176.051514 
	C113.480865,178.130356 118.234482,180.189026 122.990448,182.646057 
	C123.165894,184.358719 123.162041,185.726379 123.539528,186.979126 
	C127.188972,199.090424 130.989014,211.156937 134.566620,223.289124 
	C136.867279,231.091064 138.867767,238.981506 141.002808,246.832275 
z"/>
<path fill="#F6891A" opacity="1.000000" stroke="none" 
	d="
M141.462845,246.901794 
	C138.867767,238.981506 136.867279,231.091064 134.566620,223.289124 
	C130.989014,211.156937 127.188972,199.090424 123.539528,186.979126 
	C123.162041,185.726379 123.165894,184.358719 123.343826,182.692719 
	C128.834961,184.446991 133.975052,186.552948 139.091919,189.093109 
	C139.267136,191.160355 139.239029,192.860825 139.701599,194.415268 
	C142.300568,203.148544 145.109222,211.819824 147.668747,220.564255 
	C150.222534,229.289032 152.567123,238.075073 155.003433,246.834244 
	C150.643250,246.879944 146.283066,246.925644 141.462845,246.901794 
z"/>
<path fill="#F4A81F" opacity="1.000000" stroke="none" 
	d="
M130.550888,35.092697 
	C135.146515,49.378185 139.242249,63.603970 143.447968,77.797165 
	C146.096161,86.734116 148.981598,95.601013 151.601822,104.545860 
	C152.341721,107.071709 152.521805,109.761551 152.579895,112.741676 
	C148.466019,111.382828 144.730911,109.658470 140.995804,107.934113 
	C139.037704,100.588547 137.228897,93.199219 135.091339,85.906250 
	C130.198196,69.211639 125.144432,52.564095 120.078415,35.531078 
	C123.366463,35.116215 126.731987,35.067711 130.550888,35.092697 
z"/>
<path fill="#F86713" opacity="1.000000" stroke="none" 
	d="
M101.446617,246.902069 
	C96.492134,231.530975 92.025185,216.216782 87.461288,200.931564 
	C83.893494,188.982483 80.164917,177.081329 76.616295,165.126678 
	C76.107948,163.414169 76.210831,161.520203 76.383102,159.360092 
	C80.214096,161.186874 83.692825,163.363800 87.140320,165.975128 
	C87.502342,168.692184 87.669441,171.042114 88.325348,173.246613 
	C92.732735,188.059677 97.305656,202.823578 101.699615,217.640564 
	C104.575729,227.339188 107.241440,237.100204 110.001389,246.833282 
	C107.298386,246.879349 104.595383,246.925400 101.446617,246.902069 
z"/>
<path fill="#F2C124" opacity="1.000000" stroke="none" 
	d="
M177.848083,126.458618 
	C177.695862,123.878563 178.034424,121.152290 177.316025,118.740913 
	C169.574112,92.754433 161.654816,66.820824 153.829605,40.859020 
	C153.356628,39.289848 153.269989,37.604240 153.002594,35.569572 
	C155.048004,35.117325 157.094406,35.068321 159.574036,35.093925 
	C164.133972,49.002869 168.226578,62.847496 172.396423,76.668823 
	C177.144623,92.407104 182.032837,108.103676 186.673431,123.873329 
	C187.382095,126.281479 187.084106,128.985855 186.669403,131.747223 
	C183.340744,130.113708 180.594406,128.286163 177.848083,126.458618 
z"/>
<path fill="#F77516" opacity="1.000000" stroke="none" 
	d="
M107.998634,176.031342 
	C112.182640,190.402527 116.407745,204.761902 120.535561,219.149216 
	C123.099739,228.086533 125.516510,237.066132 128.001617,246.429886 
	C124.969772,246.879425 121.935745,246.925842 118.450180,246.499481 
	C117.836143,244.714691 117.856567,243.348007 117.483177,242.099060 
	C113.157394,227.629440 108.659492,213.210358 104.443359,198.709213 
	C101.766640,189.502777 99.485428,180.181381 97.387024,170.949539 
	C101.164345,172.668808 104.581490,174.350082 107.998634,176.031342 
z"/>
<path fill="#F5931C" opacity="1.000000" stroke="none" 
	d="
M155.447357,246.903687 
	C152.567123,238.075073 150.222534,229.289032 147.668747,220.564255 
	C145.109222,211.819824 142.300568,203.148544 139.701599,194.415268 
	C139.239029,192.860825 139.267136,191.160355 139.464828,189.157043 
	C144.237595,190.593781 148.614182,192.400772 152.999054,194.602020 
	C155.169662,202.658875 157.373596,210.310059 159.483658,217.987045 
	C162.031784,227.257767 164.500351,236.550339 167.003342,245.833466 
	C163.299332,246.213364 159.595306,246.593246 155.447357,246.903687 
z"/>
<path fill="#F68C1A" opacity="1.000000" stroke="none" 
	d="
M84.002792,35.164799 
	C87.698013,35.117157 91.393219,35.069511 95.545486,35.497009 
	C98.468735,44.887695 100.895630,53.814339 103.411041,62.715973 
	C106.559227,73.856857 109.780121,84.977188 112.600517,96.081223 
	C107.387604,93.751823 102.543808,91.447594 97.959618,88.867889 
	C97.712189,85.250687 97.550117,81.811562 96.638817,78.583977 
	C92.543098,64.078079 88.234573,49.632278 84.002792,35.164799 
z"/>
<path fill="#F86E15" opacity="1.000000" stroke="none" 
	d="
M97.026855,170.911530 
	C99.485428,180.181381 101.766640,189.502777 104.443359,198.709213 
	C108.659492,213.210358 113.157394,227.629440 117.483177,242.099060 
	C117.856567,243.348007 117.836143,244.714691 118.000504,246.429810 
	C115.628708,246.879333 113.255051,246.925751 110.441391,246.902710 
	C107.241440,237.100204 104.575729,227.339188 101.699615,217.640564 
	C97.305656,202.823578 92.732735,188.059677 88.325348,173.246613 
	C87.669441,171.042114 87.502342,168.692184 87.479935,166.097900 
	C90.909470,167.494675 93.968163,169.203094 97.026855,170.911530 
z"/>
<path fill="#FB400C" opacity="1.000000" stroke="none" 
	d="
M59.001415,242.834106 
	C55.083523,240.803360 51.165630,238.772598 47.110519,236.002502 
	C46.945839,234.432266 47.090969,233.551010 46.865398,232.777924 
	C42.396824,217.462784 37.945934,202.141678 33.288067,186.883881 
	C32.826092,185.370560 31.047434,184.259171 29.879885,182.961243 
	C32.002647,179.385971 34.125412,175.810715 36.861183,172.278595 
	C38.557610,174.154099 40.042969,175.861069 40.659996,177.838928 
	C45.056053,191.930359 49.415031,206.036804 53.492779,220.222687 
	C55.634117,227.672119 57.184284,235.291489 59.001415,242.834106 
z"/>
<path fill="#F5931C" opacity="1.000000" stroke="none" 
	d="
M112.969635,96.106384 
	C109.780121,84.977188 106.559227,73.856857 103.411041,62.715973 
	C100.895630,53.814339 98.468735,44.887695 96.001343,35.568901 
	C99.034683,35.117073 102.069229,35.068489 105.553253,35.092422 
	C108.126076,43.322399 110.081360,51.528248 112.413094,59.625702 
	C115.717484,71.100929 119.353302,82.480476 122.706726,93.942085 
	C123.232674,95.739685 123.014969,97.754875 122.528931,99.892456 
	C118.934380,98.779106 115.952011,97.442741 112.969635,96.106384 
z"/>
<path fill="#FA480D" opacity="1.000000" stroke="none" 
	d="
M59.338684,243.003174 
	C57.184284,235.291489 55.634117,227.672119 53.492779,220.222687 
	C49.415031,206.036804 45.056053,191.930359 40.659996,177.838928 
	C40.042969,175.861069 38.557610,174.154099 37.172565,172.134186 
	C38.676090,170.039673 40.481236,168.132721 42.584351,166.092270 
	C43.984085,167.340103 45.626060,168.556229 46.106621,170.127548 
	C53.380535,193.911636 60.510509,217.739807 67.632233,241.570190 
	C67.957718,242.659302 67.887680,243.866608 68.004829,245.426178 
	C65.230522,244.946396 62.453236,244.059326 59.338684,243.003174 
z"/>
<path fill="#F68319" opacity="1.000000" stroke="none" 
	d="
M83.605728,35.091541 
	C88.234573,49.632278 92.543098,64.078079 96.638817,78.583977 
	C97.550117,81.811562 97.712189,85.250687 97.616486,88.814087 
	C92.581726,86.400124 88.149719,83.764481 83.975075,80.856644 
	C84.143555,78.852196 84.378441,77.027481 83.914360,75.402374 
	C80.335480,62.869797 76.621201,50.375881 72.948906,37.869980 
	C76.368828,36.919415 79.788742,35.968849 83.605728,35.091541 
z"/>
<path fill="#F59D1E" opacity="1.000000" stroke="none" 
	d="
M167.393311,245.902771 
	C164.500351,236.550339 162.031784,227.257767 159.483658,217.987045 
	C157.373596,210.310059 155.169662,202.658875 153.348877,194.640610 
	C157.791473,196.242371 161.892517,198.199799 166.020508,200.541901 
	C170.046616,214.654083 174.045776,228.381577 178.044937,242.109070 
	C174.624374,243.396729 171.203827,244.684402 167.393311,245.902771 
z"/>
<path fill="#FC380A" opacity="1.000000" stroke="none" 
	d="
M29.564592,183.143356 
	C31.047434,184.259171 32.826092,185.370560 33.288067,186.883881 
	C37.945934,202.141678 42.396824,217.462784 46.865398,232.777924 
	C47.090969,233.551010 46.945839,234.432266 46.965134,235.689514 
	C46.794834,236.075790 46.632717,236.035721 46.068443,235.755188 
	C45.426517,235.312607 45.160271,235.155289 44.867561,235.042770 
	C31.742575,225.089981 25.241922,211.886581 26.129553,195.426315 
	C26.349451,191.348495 28.166445,187.356766 29.564592,183.143356 
z"/>
<path fill="#F77E18" opacity="1.000000" stroke="none" 
	d="
M72.562302,37.925060 
	C76.621201,50.375881 80.335480,62.869797 83.914360,75.402374 
	C84.378441,77.027481 84.143555,78.852196 83.649811,80.776749 
	C73.102280,74.406685 65.998085,65.914658 64.295540,53.634663 
	C64.159798,52.655571 62.789139,51.847694 61.987484,50.556114 
	C61.657986,47.490513 61.333378,44.829041 61.008770,42.167572 
	C64.731079,40.771759 68.453384,39.375950 72.562302,37.925060 
z"/>
<path fill="#FA510F" opacity="1.000000" stroke="none" 
	d="
M50.077068,136.793808 
	C49.805225,138.326279 49.533386,139.858765 49.105011,141.748978 
	C37.393978,132.185745 28.763348,120.239227 25.775990,105.151337 
	C23.967487,96.017342 23.834040,86.596672 28.322254,77.432961 
	C29.731707,78.478088 30.581104,79.821587 31.545509,81.076714 
	C32.584187,82.428505 33.730637,83.697502 34.840897,85.409576 
	C32.847015,95.148369 31.937952,104.434196 34.903358,113.804543 
	C37.796959,122.947990 43.713165,129.994476 50.077068,136.793808 
z"/>
<path fill="#F4A81F" opacity="1.000000" stroke="none" 
	d="
M178.421371,242.059692 
	C174.045776,228.381577 170.046616,214.654083 166.362259,200.592285 
	C171.127716,203.145523 175.578369,206.033066 180.023178,209.349380 
	C180.201996,211.563248 180.150101,213.412262 180.612106,215.122437 
	C182.662933,222.713867 184.861099,230.265488 187.005997,237.831512 
	C184.269928,239.224472 181.533859,240.617401 178.421371,242.059692 
z"/>
<path fill="#F3CE2C" opacity="1.000000" stroke="none" 
	d="
M207.643799,153.710434 
	C207.442322,150.037476 207.240829,146.364517 207.045837,142.277222 
	C215.916718,153.746262 220.890762,167.210281 220.824081,181.915512 
	C220.757843,196.523651 216.017975,209.947342 206.242935,221.181091 
	C203.264023,224.604538 199.930557,227.719467 196.307404,230.921814 
	C195.855331,230.867966 195.643524,230.671814 195.807724,230.381439 
	C198.778000,226.813889 201.848450,223.725555 204.346558,220.228394 
	C218.853210,199.920273 221.733047,178.702789 208.925751,156.394073 
	C208.433578,155.536758 208.068253,154.606628 207.643799,153.710434 
z"/>
<path fill="#F3B221" opacity="1.000000" stroke="none" 
	d="
M187.350998,237.801056 
	C184.861099,230.265488 182.662933,222.713867 180.612106,215.122437 
	C180.150101,213.412262 180.201996,211.563248 180.342041,209.463104 
	C187.357056,214.490280 191.769516,221.161972 192.951599,229.807861 
	C193.041168,230.462952 194.155441,230.977936 194.861008,231.692917 
	C194.928635,231.827789 195.069885,232.094421 195.069885,232.094421 
	C192.611938,233.986481 190.153961,235.878540 187.350998,237.801056 
z"/>
<path fill="#F95810" opacity="1.000000" stroke="none" 
	d="
M34.830070,85.002617 
	C33.730637,83.697502 32.584187,82.428505 31.545509,81.076714 
	C30.581104,79.821587 29.731707,78.478088 28.498440,77.086372 
	C30.201538,72.758499 32.237869,68.517746 34.837418,63.928391 
	C35.730122,63.310246 36.059608,63.040710 36.389091,62.771175 
	C36.389091,62.771175 36.221210,62.355053 36.578846,62.614349 
	C38.357883,65.268852 39.779289,67.664062 41.104790,70.409912 
	C38.949284,75.507912 36.889675,80.255264 34.830070,85.002617 
z"/>
<path fill="#F86713" opacity="1.000000" stroke="none" 
	d="
M41.200695,70.059273 
	C39.779289,67.664062 38.357883,65.268852 36.768967,62.495224 
	C39.824848,58.818256 43.048252,55.519707 46.874435,52.272163 
	C48.930904,54.202488 50.384586,56.081806 51.671066,58.243538 
	C48.069473,62.370388 44.635082,66.214828 41.200695,70.059273 
z"/>
<path fill="#F86E15" opacity="1.000000" stroke="none" 
	d="
M51.838264,57.961124 
	C50.384586,56.081806 48.930904,54.202488 47.187294,52.136208 
	C51.371117,48.709698 55.844868,45.470154 60.663696,42.199089 
	C61.333378,44.829041 61.657986,47.490513 61.757240,50.817978 
	C58.300682,53.643028 55.069473,55.802078 51.838264,57.961124 
z"/>
<path fill="#F86713" opacity="1.000000" stroke="none" 
	d="
M36.052761,62.850052 
	C36.059608,63.040710 35.730122,63.310246 35.144169,63.763134 
	C35.163944,63.607307 35.440189,63.268120 36.052761,62.850052 
z"/>
<path fill="#F3CE2C" opacity="1.000000" stroke="none" 
	d="
M195.960052,230.967316 
	C195.891312,231.347900 195.717850,231.629135 195.307129,232.002396 
	C195.069885,232.094421 194.928635,231.827789 194.937927,231.492615 
	C195.119537,230.909897 195.351639,230.748016 195.643524,230.671814 
	C195.643524,230.671814 195.855331,230.867966 195.960052,230.967316 
z"/>
<path fill="#FB400C" opacity="1.000000" stroke="none" 
	d="
M44.963982,235.291962 
	C45.160271,235.155289 45.426517,235.312607 45.829056,235.681427 
	C45.681347,235.745789 45.370872,235.643478 44.963982,235.291962 
z"/>
<path fill="#FAF9F7" opacity="1.000000" stroke="none" 
	d="
M195.807724,230.381439 
	C195.351639,230.748016 195.119537,230.909897 194.870300,231.357742 
	C194.155441,230.977936 193.041168,230.462952 192.951599,229.807861 
	C191.769516,221.161972 187.357056,214.490280 180.347900,209.034332 
	C175.578369,206.033066 171.127716,203.145523 166.335297,200.207596 
	C161.892517,198.199799 157.791473,196.242371 153.340607,194.246368 
	C148.614182,192.400772 144.237595,190.593781 139.488068,188.722839 
	C133.975052,186.552948 128.834961,184.446991 123.341476,182.294373 
	C118.234482,180.189026 113.480865,178.130356 108.362946,176.051514 
	C104.581490,174.350082 101.164345,172.668808 97.387024,170.949539 
	C93.968163,169.203094 90.909470,167.494675 87.511169,165.663483 
	C83.692825,163.363800 80.214096,161.186874 76.394806,158.926270 
	C72.519592,156.167267 68.984955,153.491959 65.171104,150.669785 
	C60.160717,146.039017 55.429531,141.555115 50.387707,136.932510 
	C43.713165,129.994476 37.796959,122.947990 34.903358,113.804543 
	C31.937952,104.434196 32.847015,95.148369 34.840897,85.409576 
	C36.889675,80.255264 38.949284,75.507912 41.104790,70.409912 
	C44.635082,66.214828 48.069473,62.370388 51.671066,58.243538 
	C55.069473,55.802078 58.300682,53.643028 61.762131,51.222115 
	C62.789139,51.847694 64.159798,52.655571 64.295540,53.634663 
	C65.998085,65.914658 73.102280,74.406685 83.392441,81.048935 
	C88.149719,83.764481 92.581726,86.400124 97.356873,89.089569 
	C102.543808,91.447594 107.387604,93.751823 112.600517,96.081223 
	C115.952011,97.442741 118.934380,98.779106 122.268997,100.154205 
	C128.503143,102.760391 134.385056,105.327843 140.631378,107.914703 
	C144.730911,109.658470 148.466019,111.382828 152.566177,113.174217 
	C157.370392,115.496307 161.809555,117.751358 166.605835,120.069199 
	C170.364227,122.157890 173.765503,124.183792 177.507431,126.334160 
	C180.594406,128.286163 183.340744,130.113708 186.407410,132.034073 
	C194.519714,138.197052 202.109268,144.463303 207.394104,153.457184 
	C208.068253,154.606628 208.433578,155.536758 208.925751,156.394073 
	C221.733047,178.702789 218.853210,199.920273 204.346558,220.228394 
	C201.848450,223.725555 198.778000,226.813889 195.807724,230.381439 
z"/>
</svg>